<mxfile host="app.diagrams.net" modified="2022-07-21T14:26:18.577Z" agent="5.0 (Windows)" etag="_U9zV--_vXSTlu4c8sDE" version="20.1.3" type="github">
  <diagram id="1pK2U52u39EcWoUf9Ywa" name="Página-1">
    <mxGraphModel dx="1422" dy="1576" grid="0" gridSize="10" guides="1" tooltips="1" connect="1" arrows="1" fold="1" page="1" pageScale="1" pageWidth="1169" pageHeight="827" math="0" shadow="0">
      <root>
        <mxCell id="0" />
        <mxCell id="1" parent="0" />
        <mxCell id="-nL9x9uwBdVTPMebP5XL-3" value="&lt;font color=&quot;#0F0F0F&quot;&gt;ALUMNO&lt;/font&gt;" style="rounded=0;whiteSpace=wrap;html=1;shadow=0;sketch=0;fontSize=18;" parent="1" vertex="1">
          <mxGeometry x="192" y="-570" width="120" height="60" as="geometry" />
        </mxCell>
        <mxCell id="-nL9x9uwBdVTPMebP5XL-4" value="DESEMPLEADO" style="rounded=0;whiteSpace=wrap;html=1;shadow=0;sketch=0;fontSize=18;" parent="1" vertex="1">
          <mxGeometry x="12" y="-430" width="200" height="60" as="geometry" />
        </mxCell>
        <mxCell id="-nL9x9uwBdVTPMebP5XL-6" value="TRABAJADOR" style="rounded=0;whiteSpace=wrap;html=1;shadow=0;sketch=0;fontSize=18;" parent="1" vertex="1">
          <mxGeometry x="234" y="-430" width="190" height="60" as="geometry" />
        </mxCell>
        <mxCell id="TKiHXVhpRPQdh1ImLI7p-12" style="rounded=0;orthogonalLoop=1;jettySize=auto;html=1;entryX=0;entryY=0.5;entryDx=0;entryDy=0;exitX=1;exitY=0.5;exitDx=0;exitDy=0;endArrow=none;endFill=0;" parent="1" source="-nL9x9uwBdVTPMebP5XL-10" target="TKiHXVhpRPQdh1ImLI7p-9" edge="1">
          <mxGeometry relative="1" as="geometry" />
        </mxCell>
        <mxCell id="-nL9x9uwBdVTPMebP5XL-10" value="&lt;div&gt;CURSO&lt;/div&gt;" style="rounded=0;whiteSpace=wrap;html=1;shadow=0;sketch=0;fontSize=18;" parent="1" vertex="1">
          <mxGeometry x="482" y="-570" width="120" height="60" as="geometry" />
        </mxCell>
        <mxCell id="-nL9x9uwBdVTPMebP5XL-12" value="PROFESOR" style="rounded=0;whiteSpace=wrap;html=1;shadow=0;sketch=0;fontSize=18;" parent="1" vertex="1">
          <mxGeometry x="802" y="-570" width="160" height="60" as="geometry" />
        </mxCell>
        <mxCell id="-nL9x9uwBdVTPMebP5XL-13" value="" style="endArrow=none;html=1;rounded=1;sketch=0;fontSize=18;curved=0;exitX=1;exitY=0.5;exitDx=0;exitDy=0;" parent="1" source="TKiHXVhpRPQdh1ImLI7p-9" target="-nL9x9uwBdVTPMebP5XL-12" edge="1">
          <mxGeometry width="50" height="50" relative="1" as="geometry">
            <mxPoint x="572" y="-390" as="sourcePoint" />
            <mxPoint x="642" y="-110" as="targetPoint" />
            <Array as="points" />
          </mxGeometry>
        </mxCell>
        <mxCell id="-y0gwHIN84zzs6Bqgjcf-3" value="" style="endArrow=none;html=1;rounded=0;startArrow=none;entryX=0.5;entryY=1;entryDx=0;entryDy=0;" parent="1" source="-y0gwHIN84zzs6Bqgjcf-6" target="-nL9x9uwBdVTPMebP5XL-3" edge="1">
          <mxGeometry width="50" height="50" relative="1" as="geometry">
            <mxPoint x="272" y="-310" as="sourcePoint" />
            <mxPoint x="272" y="-360" as="targetPoint" />
          </mxGeometry>
        </mxCell>
        <mxCell id="-y0gwHIN84zzs6Bqgjcf-4" value="" style="endArrow=none;html=1;rounded=0;exitX=0.75;exitY=0;exitDx=0;exitDy=0;entryX=1;entryY=0.5;entryDx=0;entryDy=0;" parent="1" source="-nL9x9uwBdVTPMebP5XL-4" target="-y0gwHIN84zzs6Bqgjcf-6" edge="1">
          <mxGeometry width="50" height="50" relative="1" as="geometry">
            <mxPoint x="222" y="-260" as="sourcePoint" />
            <mxPoint x="272" y="-310" as="targetPoint" />
          </mxGeometry>
        </mxCell>
        <mxCell id="-y0gwHIN84zzs6Bqgjcf-5" value="" style="endArrow=none;html=1;rounded=0;exitX=0.653;exitY=0;exitDx=0;exitDy=0;exitPerimeter=0;entryX=1;entryY=0.5;entryDx=0;entryDy=0;" parent="1" source="-nL9x9uwBdVTPMebP5XL-6" target="-y0gwHIN84zzs6Bqgjcf-6" edge="1">
          <mxGeometry width="50" height="50" relative="1" as="geometry">
            <mxPoint x="462" y="-240" as="sourcePoint" />
            <mxPoint x="272" y="-310" as="targetPoint" />
          </mxGeometry>
        </mxCell>
        <mxCell id="-y0gwHIN84zzs6Bqgjcf-6" value="" style="triangle;whiteSpace=wrap;html=1;rotation=0;direction=south;" parent="1" vertex="1">
          <mxGeometry x="242" y="-480" width="20" height="20" as="geometry" />
        </mxCell>
        <mxCell id="-y0gwHIN84zzs6Bqgjcf-8" value="" style="endArrow=none;html=1;rounded=1;sketch=0;curved=0;exitX=0;exitY=0.25;exitDx=0;exitDy=0;" parent="1" source="-nL9x9uwBdVTPMebP5XL-3" target="-y0gwHIN84zzs6Bqgjcf-9" edge="1">
          <mxGeometry width="50" height="50" relative="1" as="geometry">
            <mxPoint x="242" y="-410" as="sourcePoint" />
            <mxPoint x="242" y="-440" as="targetPoint" />
            <Array as="points" />
          </mxGeometry>
        </mxCell>
        <mxCell id="-y0gwHIN84zzs6Bqgjcf-9" value="&lt;u&gt;dni&lt;/u&gt;" style="ellipse;whiteSpace=wrap;html=1;rounded=0;sketch=0;" parent="1" vertex="1">
          <mxGeometry x="85" y="-583.21" width="50" height="20" as="geometry" />
        </mxCell>
        <mxCell id="-nL9x9uwBdVTPMebP5XL-32" style="edgeStyle=orthogonalEdgeStyle;curved=0;rounded=1;sketch=0;orthogonalLoop=1;jettySize=auto;html=1;exitX=1;exitY=1;exitDx=0;exitDy=0;fontSize=12;fontColor=#0F0F0F;strokeColor=#FFFFFF;" parent="1" edge="1">
          <mxGeometry relative="1" as="geometry">
            <mxPoint x="408.8198051533782" y="-99.39339828220704" as="sourcePoint" />
            <mxPoint x="877" y="-189.99999999999977" as="targetPoint" />
          </mxGeometry>
        </mxCell>
        <mxCell id="-nL9x9uwBdVTPMebP5XL-16" value="&lt;font style=&quot;font-size: 12px;&quot;&gt;edad&lt;/font&gt;" style="ellipse;whiteSpace=wrap;html=1;rounded=0;shadow=0;sketch=0;fontSize=12;" parent="1" vertex="1">
          <mxGeometry x="1050" y="-580.7869696969698" width="70" height="18.79" as="geometry" />
        </mxCell>
        <mxCell id="-nL9x9uwBdVTPMebP5XL-18" value="apellidos" style="ellipse;whiteSpace=wrap;html=1;rounded=0;shadow=0;sketch=0;fontSize=12;" parent="1" vertex="1">
          <mxGeometry x="1050" y="-548.7939393939395" width="70" height="18.79" as="geometry" />
        </mxCell>
        <mxCell id="-nL9x9uwBdVTPMebP5XL-19" value="dirección" style="ellipse;whiteSpace=wrap;html=1;rounded=0;shadow=0;sketch=0;fontSize=12;" parent="1" vertex="1">
          <mxGeometry x="1050" y="-517.790909090909" width="70" height="18.79" as="geometry" />
        </mxCell>
        <mxCell id="-nL9x9uwBdVTPMebP5XL-20" value="teléfono" style="ellipse;whiteSpace=wrap;html=1;rounded=0;shadow=0;sketch=0;fontSize=12;" parent="1" vertex="1">
          <mxGeometry x="1050" y="-488" width="70" height="18.79" as="geometry" />
        </mxCell>
        <mxCell id="TKiHXVhpRPQdh1ImLI7p-9" value="imparte" style="rhombus;whiteSpace=wrap;html=1;" parent="1" vertex="1">
          <mxGeometry x="672" y="-565" width="80" height="50" as="geometry" />
        </mxCell>
        <mxCell id="TKiHXVhpRPQdh1ImLI7p-10" value="cursa" style="rhombus;whiteSpace=wrap;html=1;" parent="1" vertex="1">
          <mxGeometry x="352" y="-565" width="80" height="50" as="geometry" />
        </mxCell>
        <mxCell id="-y0gwHIN84zzs6Bqgjcf-12" value="&lt;font style=&quot;font-size: 12px;&quot;&gt;nombre&lt;/font&gt;" style="ellipse;whiteSpace=wrap;html=1;rounded=0;shadow=0;sketch=0;fontSize=18;" parent="1" vertex="1">
          <mxGeometry x="75" y="-552" width="60" height="20" as="geometry" />
        </mxCell>
        <mxCell id="-y0gwHIN84zzs6Bqgjcf-13" value="" style="endArrow=none;html=1;rounded=1;sketch=0;curved=0;entryX=-0.003;entryY=0.437;entryDx=0;entryDy=0;entryPerimeter=0;" parent="1" source="-y0gwHIN84zzs6Bqgjcf-12" target="-nL9x9uwBdVTPMebP5XL-3" edge="1">
          <mxGeometry width="50" height="50" relative="1" as="geometry">
            <mxPoint x="182" y="-410" as="sourcePoint" />
            <mxPoint x="189.96000000000004" y="-387.02" as="targetPoint" />
          </mxGeometry>
        </mxCell>
        <mxCell id="-y0gwHIN84zzs6Bqgjcf-15" value="&lt;font style=&quot;font-size: 12px;&quot;&gt;direccion&lt;/font&gt;" style="ellipse;whiteSpace=wrap;html=1;rounded=0;shadow=0;sketch=0;fontSize=18;" parent="1" vertex="1">
          <mxGeometry x="65" y="-608" width="70" height="18.79" as="geometry" />
        </mxCell>
        <mxCell id="-y0gwHIN84zzs6Bqgjcf-16" value="" style="endArrow=none;html=1;rounded=1;sketch=0;curved=0;exitX=0;exitY=0;exitDx=0;exitDy=0;entryX=0.995;entryY=0.621;entryDx=0;entryDy=0;entryPerimeter=0;" parent="1" source="-nL9x9uwBdVTPMebP5XL-3" target="-y0gwHIN84zzs6Bqgjcf-15" edge="1">
          <mxGeometry width="50" height="50" relative="1" as="geometry">
            <mxPoint x="252" y="-400" as="sourcePoint" />
            <mxPoint x="282" y="-459" as="targetPoint" />
            <Array as="points" />
          </mxGeometry>
        </mxCell>
        <mxCell id="-y0gwHIN84zzs6Bqgjcf-17" value="&lt;font style=&quot;font-size: 12px;&quot;&gt;telf&lt;/font&gt;" style="ellipse;whiteSpace=wrap;html=1;rounded=0;shadow=0;sketch=0;fontSize=18;" parent="1" vertex="1">
          <mxGeometry x="25" y="-522" width="110" height="20" as="geometry" />
        </mxCell>
        <mxCell id="-y0gwHIN84zzs6Bqgjcf-18" value="" style="endArrow=none;html=1;rounded=1;sketch=0;curved=0;entryX=1;entryY=0.5;entryDx=0;entryDy=0;" parent="1" source="-nL9x9uwBdVTPMebP5XL-3" target="-y0gwHIN84zzs6Bqgjcf-17" edge="1">
          <mxGeometry width="50" height="50" relative="1" as="geometry">
            <mxPoint x="283.72" y="-400.6600000000001" as="sourcePoint" />
            <mxPoint x="297" y="-440" as="targetPoint" />
            <Array as="points" />
          </mxGeometry>
        </mxCell>
        <mxCell id="-y0gwHIN84zzs6Bqgjcf-24" value="&lt;font style=&quot;font-size: 12px;&quot;&gt;edad&lt;/font&gt;" style="ellipse;whiteSpace=wrap;html=1;rounded=0;shadow=0;sketch=0;fontSize=18;" parent="1" vertex="1">
          <mxGeometry x="75" y="-492" width="60" height="20" as="geometry" />
        </mxCell>
        <mxCell id="-y0gwHIN84zzs6Bqgjcf-25" value="" style="endArrow=none;html=1;rounded=1;sketch=0;fontSize=12;curved=0;exitX=0;exitY=1;exitDx=0;exitDy=0;entryX=1.013;entryY=0.367;entryDx=0;entryDy=0;entryPerimeter=0;" parent="1" source="-nL9x9uwBdVTPMebP5XL-3" target="-y0gwHIN84zzs6Bqgjcf-24" edge="1">
          <mxGeometry width="50" height="50" relative="1" as="geometry">
            <mxPoint x="322" y="-400" as="sourcePoint" />
            <mxPoint x="372" y="-450" as="targetPoint" />
          </mxGeometry>
        </mxCell>
        <mxCell id="-nL9x9uwBdVTPMebP5XL-37" value="" style="edgeStyle=orthogonalEdgeStyle;curved=0;rounded=1;sketch=0;orthogonalLoop=1;jettySize=auto;html=1;fontSize=12;fontColor=#0F0F0F;strokeColor=#FFFFFF;" parent="1" source="-nL9x9uwBdVTPMebP5XL-35" edge="1">
          <mxGeometry relative="1" as="geometry">
            <mxPoint x="296.5" y="489" as="targetPoint" />
          </mxGeometry>
        </mxCell>
        <mxCell id="-nL9x9uwBdVTPMebP5XL-35" value="direccion_empresa" style="ellipse;whiteSpace=wrap;html=1;rounded=0;shadow=0;sketch=0;fontSize=12;" parent="1" vertex="1">
          <mxGeometry x="318" y="-245.39" width="114" height="30" as="geometry" />
        </mxCell>
        <mxCell id="TKiHXVhpRPQdh1ImLI7p-15" value="" style="endArrow=none;html=1;rounded=0;exitX=0.5;exitY=0;exitDx=0;exitDy=0;entryX=0.642;entryY=1.019;entryDx=0;entryDy=0;entryPerimeter=0;" parent="1" source="-nL9x9uwBdVTPMebP5XL-20" target="-nL9x9uwBdVTPMebP5XL-12" edge="1">
          <mxGeometry width="50" height="50" relative="1" as="geometry">
            <mxPoint x="652" y="-240" as="sourcePoint" />
            <mxPoint x="702" y="-290" as="targetPoint" />
          </mxGeometry>
        </mxCell>
        <mxCell id="-nL9x9uwBdVTPMebP5XL-38" value="" style="endArrow=none;html=1;rounded=1;sketch=0;fontSize=11;fontColor=#0F0F0F;strokeColor=default;curved=0;exitX=0.25;exitY=1;exitDx=0;exitDy=0;" parent="1" source="-nL9x9uwBdVTPMebP5XL-6" edge="1">
          <mxGeometry width="50" height="50" relative="1" as="geometry">
            <mxPoint x="272" y="-130" as="sourcePoint" />
            <mxPoint x="282" y="-230" as="targetPoint" />
          </mxGeometry>
        </mxCell>
        <mxCell id="TKiHXVhpRPQdh1ImLI7p-16" value="" style="endArrow=none;html=1;rounded=0;exitX=0.251;exitY=0.077;exitDx=0;exitDy=0;exitPerimeter=0;entryX=0.788;entryY=1.01;entryDx=0;entryDy=0;entryPerimeter=0;" parent="1" source="-nL9x9uwBdVTPMebP5XL-19" target="-nL9x9uwBdVTPMebP5XL-12" edge="1">
          <mxGeometry width="50" height="50" relative="1" as="geometry">
            <mxPoint x="652" y="-240" as="sourcePoint" />
            <mxPoint x="702" y="-290" as="targetPoint" />
          </mxGeometry>
        </mxCell>
        <mxCell id="TKiHXVhpRPQdh1ImLI7p-17" value="" style="endArrow=none;html=1;rounded=0;exitX=0;exitY=0.5;exitDx=0;exitDy=0;entryX=1;entryY=0.75;entryDx=0;entryDy=0;" parent="1" source="-nL9x9uwBdVTPMebP5XL-18" target="-nL9x9uwBdVTPMebP5XL-12" edge="1">
          <mxGeometry width="50" height="50" relative="1" as="geometry">
            <mxPoint x="652" y="-240" as="sourcePoint" />
            <mxPoint x="702" y="-290" as="targetPoint" />
          </mxGeometry>
        </mxCell>
        <mxCell id="TKiHXVhpRPQdh1ImLI7p-18" value="" style="endArrow=none;html=1;rounded=0;exitX=0;exitY=0.5;exitDx=0;exitDy=0;entryX=1;entryY=0.25;entryDx=0;entryDy=0;" parent="1" source="-nL9x9uwBdVTPMebP5XL-16" target="-nL9x9uwBdVTPMebP5XL-12" edge="1">
          <mxGeometry width="50" height="50" relative="1" as="geometry">
            <mxPoint x="652" y="-240" as="sourcePoint" />
            <mxPoint x="702" y="-290" as="targetPoint" />
          </mxGeometry>
        </mxCell>
        <mxCell id="TKiHXVhpRPQdh1ImLI7p-19" value="" style="endArrow=none;html=1;rounded=0;entryX=0.75;entryY=0;entryDx=0;entryDy=0;exitX=0;exitY=0.5;exitDx=0;exitDy=0;" parent="1" source="TKiHXVhpRPQdh1ImLI7p-21" target="-nL9x9uwBdVTPMebP5XL-12" edge="1">
          <mxGeometry width="50" height="50" relative="1" as="geometry">
            <mxPoint x="852" y="-380" as="sourcePoint" />
            <mxPoint x="702" y="-290" as="targetPoint" />
          </mxGeometry>
        </mxCell>
        <mxCell id="TKiHXVhpRPQdh1ImLI7p-21" value="&lt;font style=&quot;font-size: 12px;&quot;&gt;dni&lt;/font&gt;" style="ellipse;whiteSpace=wrap;html=1;rounded=0;shadow=0;sketch=0;fontSize=12;fontStyle=4" parent="1" vertex="1">
          <mxGeometry x="1049" y="-608.6069696969697" width="70" height="18.79" as="geometry" />
        </mxCell>
        <mxCell id="-y0gwHIN84zzs6Bqgjcf-26" value="&lt;font style=&quot;font-size: 12px;&quot;&gt;nombre&lt;/font&gt;" style="ellipse;whiteSpace=wrap;html=1;rounded=0;shadow=0;sketch=0;fontSize=18;" parent="1" vertex="1">
          <mxGeometry x="1052" y="-638.21" width="60" height="20" as="geometry" />
        </mxCell>
        <mxCell id="-y0gwHIN84zzs6Bqgjcf-34" value="" style="endArrow=none;html=1;rounded=1;sketch=0;fontSize=12;curved=0;entryX=0.5;entryY=1;entryDx=0;entryDy=0;exitX=0.5;exitY=0;exitDx=0;exitDy=0;" parent="1" source="-nL9x9uwBdVTPMebP5XL-12" target="-y0gwHIN84zzs6Bqgjcf-26" edge="1">
          <mxGeometry width="50" height="50" relative="1" as="geometry">
            <mxPoint x="791.33" y="-330" as="sourcePoint" />
            <mxPoint x="791.33" y="-410" as="targetPoint" />
          </mxGeometry>
        </mxCell>
        <mxCell id="TKiHXVhpRPQdh1ImLI7p-43" style="edgeStyle=none;rounded=0;orthogonalLoop=1;jettySize=auto;html=1;fontSize=12;endArrow=none;endFill=0;" parent="1" source="TKiHXVhpRPQdh1ImLI7p-37" target="-nL9x9uwBdVTPMebP5XL-10" edge="1">
          <mxGeometry relative="1" as="geometry" />
        </mxCell>
        <mxCell id="TKiHXVhpRPQdh1ImLI7p-37" value="&lt;u&gt;idCurso&lt;/u&gt;" style="ellipse;whiteSpace=wrap;html=1;rounded=0;sketch=0;" parent="1" vertex="1">
          <mxGeometry x="412" y="-641.21" width="60" height="20" as="geometry" />
        </mxCell>
        <mxCell id="TKiHXVhpRPQdh1ImLI7p-42" style="edgeStyle=none;rounded=0;orthogonalLoop=1;jettySize=auto;html=1;fontSize=12;endArrow=none;endFill=0;" parent="1" source="TKiHXVhpRPQdh1ImLI7p-38" target="-nL9x9uwBdVTPMebP5XL-10" edge="1">
          <mxGeometry relative="1" as="geometry" />
        </mxCell>
        <mxCell id="TKiHXVhpRPQdh1ImLI7p-38" value="&lt;span style=&quot;font-size: 12px;&quot;&gt;horas&lt;/span&gt;" style="ellipse;whiteSpace=wrap;html=1;rounded=0;shadow=0;sketch=0;fontSize=18;" parent="1" vertex="1">
          <mxGeometry x="462" y="-700" width="70" height="18.79" as="geometry" />
        </mxCell>
        <mxCell id="TKiHXVhpRPQdh1ImLI7p-41" style="edgeStyle=none;rounded=0;orthogonalLoop=1;jettySize=auto;html=1;fontSize=12;endArrow=none;endFill=0;" parent="1" source="TKiHXVhpRPQdh1ImLI7p-40" target="-nL9x9uwBdVTPMebP5XL-10" edge="1">
          <mxGeometry relative="1" as="geometry" />
        </mxCell>
        <mxCell id="TKiHXVhpRPQdh1ImLI7p-40" value="&lt;span style=&quot;font-size: 12px;&quot;&gt;titulo&lt;br&gt;&lt;/span&gt;" style="ellipse;whiteSpace=wrap;html=1;rounded=0;shadow=0;sketch=0;fontSize=18;" parent="1" vertex="1">
          <mxGeometry x="422" y="-670" width="70" height="18.79" as="geometry" />
        </mxCell>
        <mxCell id="TKiHXVhpRPQdh1ImLI7p-54" style="edgeStyle=none;rounded=0;orthogonalLoop=1;jettySize=auto;html=1;entryX=0.5;entryY=0;entryDx=0;entryDy=0;fontSize=12;endArrow=none;endFill=0;" parent="1" source="TKiHXVhpRPQdh1ImLI7p-44" target="-nL9x9uwBdVTPMebP5XL-10" edge="1">
          <mxGeometry relative="1" as="geometry" />
        </mxCell>
        <mxCell id="TKiHXVhpRPQdh1ImLI7p-44" value="&lt;span style=&quot;font-size: 12px;&quot;&gt;programa&lt;br&gt;&lt;/span&gt;" style="ellipse;whiteSpace=wrap;html=1;rounded=0;shadow=0;sketch=0;fontSize=18;" parent="1" vertex="1">
          <mxGeometry x="532" y="-710" width="70" height="18.79" as="geometry" />
        </mxCell>
        <mxCell id="TKiHXVhpRPQdh1ImLI7p-53" style="edgeStyle=none;rounded=0;orthogonalLoop=1;jettySize=auto;html=1;entryX=0.6;entryY=0.017;entryDx=0;entryDy=0;entryPerimeter=0;fontSize=12;endArrow=none;endFill=0;" parent="1" source="TKiHXVhpRPQdh1ImLI7p-45" target="-nL9x9uwBdVTPMebP5XL-10" edge="1">
          <mxGeometry relative="1" as="geometry" />
        </mxCell>
        <mxCell id="TKiHXVhpRPQdh1ImLI7p-45" value="&lt;span style=&quot;font-size: 12px;&quot;&gt;fecha_inicio&lt;br&gt;&lt;/span&gt;" style="ellipse;whiteSpace=wrap;html=1;rounded=0;shadow=0;sketch=0;fontSize=18;" parent="1" vertex="1">
          <mxGeometry x="572" y="-691.21" width="80" height="28.79" as="geometry" />
        </mxCell>
        <mxCell id="TKiHXVhpRPQdh1ImLI7p-52" style="edgeStyle=none;rounded=0;orthogonalLoop=1;jettySize=auto;html=1;entryX=0.75;entryY=0;entryDx=0;entryDy=0;fontSize=12;endArrow=none;endFill=0;" parent="1" source="TKiHXVhpRPQdh1ImLI7p-46" target="-nL9x9uwBdVTPMebP5XL-10" edge="1">
          <mxGeometry relative="1" as="geometry" />
        </mxCell>
        <mxCell id="TKiHXVhpRPQdh1ImLI7p-46" value="&lt;span style=&quot;font-size: 12px;&quot;&gt;fecha_fin&lt;br&gt;&lt;/span&gt;" style="ellipse;whiteSpace=wrap;html=1;rounded=0;shadow=0;sketch=0;fontSize=18;" parent="1" vertex="1">
          <mxGeometry x="612" y="-660" width="70" height="18.79" as="geometry" />
        </mxCell>
        <mxCell id="TKiHXVhpRPQdh1ImLI7p-51" style="edgeStyle=none;rounded=0;orthogonalLoop=1;jettySize=auto;html=1;fontSize=12;endArrow=none;endFill=0;" parent="1" source="TKiHXVhpRPQdh1ImLI7p-48" target="-nL9x9uwBdVTPMebP5XL-10" edge="1">
          <mxGeometry relative="1" as="geometry" />
        </mxCell>
        <mxCell id="TKiHXVhpRPQdh1ImLI7p-48" value="&lt;span style=&quot;font-size: 12px;&quot;&gt;edición&lt;br&gt;&lt;/span&gt;" style="ellipse;whiteSpace=wrap;html=1;rounded=0;shadow=0;sketch=0;fontSize=18;" parent="1" vertex="1">
          <mxGeometry x="632" y="-630" width="70" height="18.79" as="geometry" />
        </mxCell>
        <mxCell id="TKiHXVhpRPQdh1ImLI7p-50" style="edgeStyle=none;rounded=0;orthogonalLoop=1;jettySize=auto;html=1;fontSize=12;endArrow=none;endFill=0;" parent="1" source="TKiHXVhpRPQdh1ImLI7p-49" target="-nL9x9uwBdVTPMebP5XL-10" edge="1">
          <mxGeometry relative="1" as="geometry" />
        </mxCell>
        <mxCell id="TKiHXVhpRPQdh1ImLI7p-49" value="&lt;span style=&quot;font-size: 12px;&quot;&gt;id_profesor&lt;br&gt;&lt;/span&gt;" style="ellipse;whiteSpace=wrap;html=1;rounded=0;shadow=0;sketch=0;fontSize=18;" parent="1" vertex="1">
          <mxGeometry x="632" y="-600" width="70" height="30" as="geometry" />
        </mxCell>
        <mxCell id="-nL9x9uwBdVTPMebP5XL-52" style="rounded=0;orthogonalLoop=1;jettySize=auto;html=1;exitX=1;exitY=0.5;exitDx=0;exitDy=0;endArrow=none;endFill=0;" parent="1" edge="1">
          <mxGeometry relative="1" as="geometry">
            <mxPoint x="432" y="-540.5" as="sourcePoint" />
            <mxPoint x="482" y="-540" as="targetPoint" />
          </mxGeometry>
        </mxCell>
        <mxCell id="-nL9x9uwBdVTPMebP5XL-53" style="rounded=0;orthogonalLoop=1;jettySize=auto;html=1;exitX=1;exitY=0.5;exitDx=0;exitDy=0;endArrow=none;endFill=0;entryX=0;entryY=0.5;entryDx=0;entryDy=0;" parent="1" source="-nL9x9uwBdVTPMebP5XL-3" target="TKiHXVhpRPQdh1ImLI7p-10" edge="1">
          <mxGeometry relative="1" as="geometry">
            <mxPoint x="312" y="-540.25" as="sourcePoint" />
            <mxPoint x="362" y="-539.75" as="targetPoint" />
          </mxGeometry>
        </mxCell>
        <mxCell id="-nL9x9uwBdVTPMebP5XL-56" value="cif" style="ellipse;whiteSpace=wrap;html=1;rounded=0;shadow=0;sketch=0;fontSize=12;" parent="1" vertex="1">
          <mxGeometry x="332" y="-361" width="90" height="30" as="geometry" />
        </mxCell>
        <mxCell id="-nL9x9uwBdVTPMebP5XL-57" value="nombre_empresa" style="ellipse;whiteSpace=wrap;html=1;rounded=0;shadow=0;sketch=0;fontSize=12;" parent="1" vertex="1">
          <mxGeometry x="318" y="-321.21000000000004" width="107" height="32" as="geometry" />
        </mxCell>
        <mxCell id="-nL9x9uwBdVTPMebP5XL-58" value="telefono_empresa" style="ellipse;whiteSpace=wrap;html=1;rounded=0;shadow=0;sketch=0;fontSize=12;" parent="1" vertex="1">
          <mxGeometry x="317" y="-281.21000000000004" width="107" height="31" as="geometry" />
        </mxCell>
        <mxCell id="-nL9x9uwBdVTPMebP5XL-59" value="" style="endArrow=none;html=1;rounded=1;sketch=0;fontSize=11;fontColor=#0F0F0F;strokeColor=default;curved=0;exitX=0;exitY=0.5;exitDx=0;exitDy=0;" parent="1" source="-nL9x9uwBdVTPMebP5XL-56" edge="1">
          <mxGeometry width="50" height="50" relative="1" as="geometry">
            <mxPoint x="322" y="-346" as="sourcePoint" />
            <mxPoint x="282" y="-346" as="targetPoint" />
          </mxGeometry>
        </mxCell>
        <mxCell id="-nL9x9uwBdVTPMebP5XL-60" value="" style="endArrow=none;html=1;rounded=1;sketch=0;fontSize=11;fontColor=#0F0F0F;strokeColor=default;curved=0;exitX=0;exitY=0.5;exitDx=0;exitDy=0;" parent="1" source="-nL9x9uwBdVTPMebP5XL-57" edge="1">
          <mxGeometry width="50" height="50" relative="1" as="geometry">
            <mxPoint x="322" y="-305" as="sourcePoint" />
            <mxPoint x="282" y="-305" as="targetPoint" />
          </mxGeometry>
        </mxCell>
        <mxCell id="-nL9x9uwBdVTPMebP5XL-61" value="" style="endArrow=none;html=1;rounded=1;sketch=0;fontSize=11;fontColor=#0F0F0F;strokeColor=default;curved=0;exitX=0;exitY=0.5;exitDx=0;exitDy=0;" parent="1" source="-nL9x9uwBdVTPMebP5XL-58" edge="1">
          <mxGeometry width="50" height="50" relative="1" as="geometry">
            <mxPoint x="322" y="-266" as="sourcePoint" />
            <mxPoint x="282" y="-266" as="targetPoint" />
          </mxGeometry>
        </mxCell>
        <mxCell id="-nL9x9uwBdVTPMebP5XL-62" value="" style="endArrow=none;html=1;rounded=1;sketch=0;fontSize=11;fontColor=#0F0F0F;strokeColor=default;curved=0;exitX=0;exitY=0.5;exitDx=0;exitDy=0;" parent="1" source="-nL9x9uwBdVTPMebP5XL-35" edge="1">
          <mxGeometry width="50" height="50" relative="1" as="geometry">
            <mxPoint x="312" y="-230" as="sourcePoint" />
            <mxPoint x="282" y="-230" as="targetPoint" />
          </mxGeometry>
        </mxCell>
        <mxCell id="-nL9x9uwBdVTPMebP5XL-68" value="&lt;b&gt;1 : 1&lt;/b&gt;" style="text;html=1;strokeColor=none;fillColor=none;align=center;verticalAlign=middle;whiteSpace=wrap;rounded=0;shadow=0;sketch=0;fontSize=11;fontColor=#0F0F0F;" parent="1" vertex="1">
          <mxGeometry x="752" y="-565" width="60" height="30" as="geometry" />
        </mxCell>
        <mxCell id="-nL9x9uwBdVTPMebP5XL-69" value="&lt;b&gt;1 : N&lt;br&gt;&lt;/b&gt;" style="text;html=1;strokeColor=none;fillColor=none;align=center;verticalAlign=middle;whiteSpace=wrap;rounded=0;shadow=0;sketch=0;fontSize=11;fontColor=#0F0F0F;" parent="1" vertex="1">
          <mxGeometry x="592" y="-565" width="60" height="30" as="geometry" />
        </mxCell>
        <mxCell id="-nL9x9uwBdVTPMebP5XL-70" value="&lt;b&gt;1 : N&lt;br&gt;&lt;/b&gt;" style="text;html=1;strokeColor=none;fillColor=none;align=center;verticalAlign=middle;whiteSpace=wrap;rounded=0;shadow=0;sketch=0;fontSize=11;fontColor=#0F0F0F;" parent="1" vertex="1">
          <mxGeometry x="299" y="-565" width="60" height="30" as="geometry" />
        </mxCell>
        <mxCell id="-nL9x9uwBdVTPMebP5XL-71" value="&lt;b&gt;1 : N&lt;br&gt;&lt;/b&gt;" style="text;html=1;strokeColor=none;fillColor=none;align=center;verticalAlign=middle;whiteSpace=wrap;rounded=0;shadow=0;sketch=0;fontSize=11;fontColor=#0F0F0F;" parent="1" vertex="1">
          <mxGeometry x="436" y="-565" width="60" height="30" as="geometry" />
        </mxCell>
        <mxCell id="moOMvfpPYkLKGfNDIPuM-2" style="rounded=0;orthogonalLoop=1;jettySize=auto;html=1;entryX=0.388;entryY=0.14;entryDx=0;entryDy=0;entryPerimeter=0;endArrow=none;endFill=0;" parent="1" source="moOMvfpPYkLKGfNDIPuM-1" target="TKiHXVhpRPQdh1ImLI7p-10" edge="1">
          <mxGeometry relative="1" as="geometry" />
        </mxCell>
        <mxCell id="moOMvfpPYkLKGfNDIPuM-1" value="&lt;span style=&quot;font-size: 12px;&quot;&gt;nota&lt;br&gt;&lt;/span&gt;" style="ellipse;whiteSpace=wrap;html=1;rounded=0;shadow=0;sketch=0;fontSize=18;" parent="1" vertex="1">
          <mxGeometry x="318" y="-611.21" width="70" height="18.79" as="geometry" />
        </mxCell>
        <mxCell id="WrNgIL8a_gdP9hledsI5-4" value="&lt;div&gt;&lt;font style=&quot;font-size: 18px;&quot;&gt;&lt;b&gt;Alumno&lt;/b&gt;(text &lt;u&gt;dni&lt;/u&gt;,text direccion,text nombre,int telf,int edad)&lt;br&gt;&lt;br&gt;&lt;/font&gt;&lt;/div&gt;&lt;div&gt;&lt;font size=&quot;3&quot;&gt;&lt;b&gt;Desempleado&lt;/b&gt;(&lt;u&gt;dni&lt;/u&gt;) dni referencia Alumno&lt;/font&gt;&lt;/div&gt;&lt;font size=&quot;3&quot;&gt;&lt;br&gt;&lt;b&gt;Trabajador&lt;/b&gt;(&lt;u&gt;dni&lt;/u&gt;,text cif_empresa,text nom_empresa,int telf_empresa,text direc_empresa)&lt;br&gt;&amp;nbsp;&amp;nbsp; &amp;nbsp;dni referencia Alumno&lt;br&gt;&lt;br&gt;&lt;b&gt;Profesor&lt;/b&gt;(text &lt;u&gt;dni&lt;/u&gt;,text nombre,text apellidos,text direccion,int telf,int edad)&lt;br&gt;&lt;br&gt;&lt;b&gt;Curso&lt;/b&gt;(int &lt;u&gt;idCurso&lt;/u&gt;,text titulo,int horas,text programa,date fecha_inicio,date&lt;br&gt;&amp;nbsp;&amp;nbsp; &amp;nbsp;fecha_fin,int edicion,text id_profesor) id_profesor referencia Profesor(dni)&lt;br&gt;&lt;br&gt;&lt;b&gt;Cursa&lt;/b&gt;(&lt;u&gt;dni_alumno&lt;/u&gt;,int &lt;u&gt;idCurso&lt;/u&gt;,double nota) dni_alumno referenica Alumno, idCurso referencia curso&lt;/font&gt;" style="text;whiteSpace=wrap;html=1;" vertex="1" parent="1">
          <mxGeometry x="482" y="-410.39" width="637" height="249.39" as="geometry" />
        </mxCell>
      </root>
    </mxGraphModel>
  </diagram>
</mxfile>
